<svg width="24" height="24" viewBox="0 0 24 24" fill="none" xmlns="http://www.w3.org/2000/svg">
<path fill-rule="evenodd" clip-rule="evenodd" d="M11.9997 0.5C9.15088 0.501478 6.39552 1.51046 4.22626 3.34652C2.057 5.18259 0.615293 7.72601 0.158934 10.522C-0.297425 13.318 0.261316 16.1842 1.73526 18.6082C3.2092 21.0321 5.50223 22.8558 8.20432 23.753C8.80044 23.8636 9.02499 23.4942 9.02499 23.18C9.02499 22.8659 9.01306 21.955 9.00909 20.9592C5.67079 21.6804 4.96537 19.5505 4.96537 19.5505C4.42091 18.1674 3.63403 17.8039 3.63403 17.8039C2.5451 17.065 3.7155 17.0788 3.7155 17.0788C4.92166 17.1637 5.55555 18.3097 5.55555 18.3097C6.6246 20.1333 8.36328 19.6058 9.04684 19.2976C9.15414 18.5251 9.46612 17.9995 9.80989 17.7012C7.14322 17.4008 4.34143 16.3774 4.34143 11.8054C4.3249 10.6197 4.76741 9.47305 5.5774 8.60268C5.4542 8.30236 5.04287 7.08923 5.69463 5.44143C5.69463 5.44143 6.70209 5.12136 8.99519 6.66444C10.9621 6.12962 13.0373 6.12962 15.0041 6.66444C17.2952 5.12136 18.3007 5.44143 18.3007 5.44143C18.9544 7.08528 18.5431 8.29841 18.4199 8.60268C19.2325 9.47319 19.6759 10.6219 19.6579 11.8094C19.6579 16.3912 16.8501 17.4008 14.1795 17.6952C14.6087 18.0667 14.9922 18.7918 14.9922 19.9061C14.9922 21.5026 14.9783 22.7868 14.9783 23.18C14.9783 23.4981 15.1949 23.8695 15.8029 23.753C18.5053 22.8557 20.7986 21.0317 22.2725 18.6073C23.7464 16.183 24.3049 13.3163 23.848 10.5201C23.3911 7.7238 21.9487 5.18036 19.7787 3.34461C17.6087 1.50886 14.8527 0.500541 12.0036 0.5H11.9997Z" fill="white"/>
</svg>
