<svg width="24" height="20" viewBox="0 0 24 20" fill="none" xmlns="http://www.w3.org/2000/svg">
<path d="M7.54752 19.7512C16.6042 19.7512 21.5578 12.2479 21.5578 5.74101C21.5578 5.52789 21.5578 5.31573 21.5434 5.10453C22.507 4.40748 23.3389 3.54441 24 2.55573C23.1014 2.95413 22.148 3.21528 21.1718 3.33045C22.1998 2.71514 22.9692 1.74723 23.3366 0.606928C22.3701 1.18054 21.3126 1.58475 20.2099 1.80213C19.4675 1.01271 18.4856 0.48997 17.4162 0.314813C16.3468 0.139656 15.2494 0.321843 14.294 0.833181C13.3385 1.34452 12.5782 2.1565 12.1307 3.14348C11.6833 4.13045 11.5735 5.23739 11.8186 6.29301C9.86089 6.19481 7.94576 5.68604 6.19745 4.79973C4.44915 3.91343 2.90676 2.66939 1.6704 1.14837C1.04073 2.23236 0.847872 3.5156 1.1311 4.73679C1.41433 5.95799 2.15234 7.02532 3.19488 7.72149C2.41123 7.69853 1.64465 7.48712 0.96 7.10517V7.16757C0.960311 8.30442 1.35385 9.40616 2.07387 10.2859C2.79389 11.1657 3.79606 11.7693 4.9104 11.9944C4.18548 12.1922 3.42487 12.2211 2.68704 12.0789C3.00181 13.0573 3.61443 13.9128 4.43924 14.5259C5.26405 15.139 6.25983 15.479 7.28736 15.4985C6.26644 16.3009 5.09731 16.8942 3.84687 17.2444C2.59643 17.5947 1.28921 17.6949 0 17.5394C2.25183 18.9844 4.87192 19.7509 7.54752 19.7474" fill="white"/>
</svg>
